<?xml version="1.0" encoding="utf-8"?>
<svg version="1.1" xmlns:xlink="http://www.w3.org/1999/xlink" width="10px" height="10px" xmlns="http://www.w3.org/2000/svg">
  <g transform="matrix(1 0 0 1 -360 -177 )">
    <path d="M 9.7900390625 9.04172092013889  L 5.76354980472222 5.01523166236111  L 9.7900390625 0.988742404444444  C 9.99328613277778 0.785495334166667  9.99328613277778 0.45041232625  9.7900390625 0.247165256111111  L 9.76806640625 0.225192599861111  C 9.56481933597222 0.0219455295833334  9.22973632805556 0.0219455295833334  9.02648925777778 0.225192599861111  L 5 4.25717502166667  L 0.973510742222222 0.225192599861111  C 0.770263671944444 0.0219455295833334  0.435180664027778 0.0219455295833334  0.23193359375 0.225192599861111  L 0.2099609375 0.247165256111111  C 0.0012207030555555 0.450412326388889  0.0012207030555555 0.785495334305556  0.2099609375 0.988742404583334  L 4.23645019527778 5.01523166236111  L 0.2099609375 9.04172092013889  C 0.00671386722222225 9.24496799041667  0.00671386722222225 9.58005099833333  0.2099609375 9.78329806861111  L 0.23193359375 9.80527072486111  C 0.435180664027778 10.0085177951389  0.770263671944444 10.0085177951389  0.973510742222222 9.80527072486111  L 5 5.77878146708333  L 9.02648925777778 9.80527072486111  C 9.22973632805556 10.0085177951389  9.56481933597222 10.0085177951389  9.76806640625 9.80527072486111  L 9.7900390625 9.78329806861111  C 9.99328613277778 9.58005099833333  9.99328613277778 9.24496799041667  9.7900390625 9.04172092013889  Z " fill-rule="nonzero" fill="#7f7f7f" stroke="none" transform="matrix(1 0 0 1 360 177 )" />
  </g>
</svg>