<?xml version="1.0" encoding="utf-8"?>
<svg version="1.1" xmlns:xlink="http://www.w3.org/1999/xlink" width="675px" height="733px" xmlns="http://www.w3.org/2000/svg">
  <g transform="matrix(1 0 0 1 -440 -35 )">
    <path d="M 0.5 0  L 0.5 728.522565320665  C 0 730.469928741093  0.525815602837099 732  1.19503546099276 732.5  L 672.804964539007 732.5  C 673.474184397163 732  674 730.469928741093  674.5 728.522565320665  L 674.5 0  L 0.5 0  Z " fill-rule="nonzero" fill="#ffffff" stroke="none" transform="matrix(1 0 0 1 440 35 )" />
    <path d="M 0.5 0  L 0.5 728.522565320665  C 0 730.469928741093  0.525815602837099 732  1.19503546099276 732.5  L 672.804964539007 732.5  C 673.474184397163 732  674 730.469928741093  674.5 728.522565320665  L 674.5 0  " stroke-width="1" stroke="#e9e9e9" fill="none" transform="matrix(1 0 0 1 440 35 )" />
  </g>
</svg>