<?xml version="1.0" encoding="utf-8"?>
<svg version="1.1" xmlns:xlink="http://www.w3.org/1999/xlink" width="104px" height="104px" xmlns="http://www.w3.org/2000/svg">
  <g transform="matrix(1 0 0 1 -169 -1684 )">
    <path d="M 170 1688  A 3 3 0 0 1 173 1685 L 269 1685  A 3 3 0 0 1 272 1688 L 272 1784  A 3 3 0 0 1 269 1787 L 173 1787  A 3 3 0 0 1 170 1784 L 170 1688  Z " fill-rule="nonzero" fill="#ffffff" stroke="none" />
    <path d="M 169.5 1688  A 3.5 3.5 0 0 1 173 1684.5 L 269 1684.5  A 3.5 3.5 0 0 1 272.5 1688 L 272.5 1784  A 3.5 3.5 0 0 1 269 1787.5 L 173 1787.5  A 3.5 3.5 0 0 1 169.5 1784 L 169.5 1688  Z " stroke-width="1" stroke-dasharray="9,4" stroke="#d9d9d9" fill="none" stroke-dashoffset="0.5" />
  </g>
</svg>