<?xml version="1.0" encoding="utf-8"?>
<svg version="1.1" xmlns:xlink="http://www.w3.org/1999/xlink" width="15px" height="12px" xmlns="http://www.w3.org/2000/svg">
  <g transform="matrix(1 0 0 1 -36 -491 )">
    <path d="M 14.9097222222222 9.80185185185185  C 14.9097222222222 11  13.9965277777778 11.9740740740741  12.8732638888889 12  L 2.06770833333333 12  C 0.944444444444444 11.9740740740741  0.0312499999999999 11  0.0312499999999999 9.80185185185185  L 0.0312499999999999 2.20925925925926  C 0.0312499999999999 1.01111111111111  0.944444444444445 0.0370370370370381  2.06770833333333 0  L 12.8732638888889 0  C 13.9965277777778 0.0370370370370381  14.9097222222222 1.01111111111111  14.9097222222222 2.20925925925926  L 14.9097222222222 9.80185185185185  Z M 12.8732638888889 1.20925925925926  L 2.06770833333333 1.20925925925926  C 1.55034722222222 1.20925925925926  1.13020833333333 1.65740740740741  1.13020833333333 2.20925925925926  L 1.13020833333333 9.80185185185185  C 1.13020833333333 10.3537037037037  1.55034722222222 10.8018518518519  2.06770833333333 10.8018518518519  L 12.8732638888889 10.8018518518519  C 13.390625 10.8018518518519  13.8107638888889 10.3537037037037  13.8107638888889 9.80185185185185  L 13.8107638888889 2.20925925925926  C 13.8107638888889 1.65740740740741  13.390625 1.20925925925926  12.8732638888889 1.20925925925926  Z " fill-rule="nonzero" fill="#ffffff" stroke="none" transform="matrix(1 0 0 1 36 491 )" />
  </g>
</svg>