<?xml version="1.0" encoding="utf-8"?>
<svg version="1.1" xmlns:xlink="http://www.w3.org/1999/xlink" width="15px" height="8px" xmlns="http://www.w3.org/2000/svg">
  <g transform="matrix(1 0 0 1 -37 -489 )">
    <path d="M 11 2.33962264150943  C 11.0017857142857 2.66981132075472  10.7482142857143 2.9377358490566  10.4357142857143 2.9377358490566  C 10.1232142857143 2.9377358490566  9.86964285714286 2.66981132075472  9.86964285714286 2.33962264150943  L 9.86964285714286 1.49622641509434  C 9.86964285714286 1.3622641509434  9.7625 1.25094339622642  9.6375 1.25094339622642  L 5.44464285714286 1.25094339622642  C 5.31785714285714 1.25094339622642  5.21071428571429 1.36415094339623  5.21071428571429 1.49622641509434  L 5.21071428571429 2.33962264150943  C 5.21071428571429 2.66981132075472  4.95714285714286 2.9377358490566  4.64464285714286 2.9377358490566  C 4.33214285714286 2.9377358490566  4.07857142857143 2.66981132075472  4.07857142857143 2.33962264150943  L 4.07857142857143 1.49622641509434  C 4.07857142857143 0.70188679245283  4.69107142857143 0.0547169811320756  5.44285714285714 0.0547169811320756  L 9.63571428571428 0.0547169811320756  C 10.3875 0.0547169811320756  11 0.70188679245283  11 1.49622641509434  L 11 2.33962264150943  Z M 6.2 7.2622641509434  C 6.2 7.59245283018868  5.94642857142857 7.86037735849057  5.63392857142857 7.86037735849057  L 0.619642857142857 7.86037735849057  C 0.307142857142857 7.86037735849057  0.0535714285714283 7.59245283018868  0.0535714285714283 7.2622641509434  C 0.0535714285714283 6.93207547169811  0.307142857142857 6.66415094339623  0.619642857142857 6.66415094339623  L 5.63392857142857 6.66415094339623  C 5.94642857142857 6.66415094339623  6.2 6.93207547169811  6.2 7.2622641509434  Z M 14.9607142857143 7.2622641509434  C 14.9607142857143 7.59245283018868  14.7071428571429 7.86037735849057  14.3946428571429 7.86037735849057  L 9.38035714285714 7.86037735849057  C 9.06785714285714 7.86037735849057  8.81428571428571 7.59245283018868  8.81428571428571 7.2622641509434  C 8.81428571428571 6.93207547169811  9.06785714285714 6.66415094339623  9.38035714285714 6.66415094339623  L 14.3946428571429 6.66415094339623  C 14.7071428571429 6.66415094339623  14.9607142857143 6.93207547169811  14.9607142857143 7.2622641509434  Z " fill-rule="nonzero" fill="#ffffff" stroke="none" transform="matrix(1 0 0 1 37 489 )" />
  </g>
</svg>