<?xml version="1.0" encoding="utf-8"?>
<svg version="1.1" xmlns:xlink="http://www.w3.org/1999/xlink" width="5px" height="5px" xmlns="http://www.w3.org/2000/svg">
  <g transform="matrix(1 0 0 1 -42 -494 )">
    <path d="M 4.94318181818182 2.4921875  C 4.94318181818182 3.85546875  3.86742424242424 4.966796875  2.54356060606061 4.966796875  C 1.21969696969697 4.966796875  0.143939393939393 3.857421875  0.143939393939393 2.4921875  C 0.143939393939393 1.126953125  1.21969696969697 0.0175781249999996  2.54356060606061 0.0175781249999996  C 3.86742424242424 0.0175781249999996  4.94318181818182 1.126953125  4.94318181818182 2.4921875  Z M 3.74431818181818 2.4921875  C 3.74431818181818 1.80859375  3.20454545454545 1.25390625  2.54356060606061 1.25390625  C 1.88257575757576 1.25390625  1.34280303030303 1.80859375  1.34280303030303 2.4921875  C 1.34280303030303 3.17578125  1.88068181818182 3.73046875  2.54356060606061 3.73046875  C 3.20454545454545 3.73046875  3.74431818181818 3.17578125  3.74431818181818 2.4921875  Z " fill-rule="nonzero" fill="#ffffff" stroke="none" transform="matrix(1 0 0 1 42 494 )" />
  </g>
</svg>