<?xml version="1.0" encoding="utf-8"?>
<svg version="1.1" xmlns:xlink="http://www.w3.org/1999/xlink" width="440px" height="32px" xmlns="http://www.w3.org/2000/svg">
  <defs>
    <mask fill="white" id="clip441">
      <path d="M 0 28  L 0 4  C 0 1.75999999999999  1.75999999999999 0  4 0  L 50.0714285714284 0  L 436 0  C 438.24 0  440 1.75999999999999  440 4  L 440 28  C 440 30.24  438.24 32  436 32  L 128.642857142857 32  L 4 32  C 1.75999999999999 32  0 30.24  0 28  Z " fill-rule="evenodd" />
    </mask>
  </defs>
  <g transform="matrix(1 0 0 1 -1641 -239 )">
    <path d="M 0 28  L 0 4  C 0 1.75999999999999  1.75999999999999 0  4 0  L 50.0714285714284 0  L 436 0  C 438.24 0  440 1.75999999999999  440 4  L 440 28  C 440 30.24  438.24 32  436 32  L 128.642857142857 32  L 4 32  C 1.75999999999999 32  0 30.24  0 28  Z " fill-rule="nonzero" fill="#f5f5f5" stroke="none" transform="matrix(1 0 0 1 1641 239 )" />
    <path d="M 0 28  L 0 4  C 0 1.75999999999999  1.75999999999999 0  4 0  L 50.0714285714284 0  L 436 0  C 438.24 0  440 1.75999999999999  440 4  L 440 28  C 440 30.24  438.24 32  436 32  L 128.642857142857 32  L 4 32  C 1.75999999999999 32  0 30.24  0 28  Z " stroke-width="2" stroke="#d9d9d9" fill="none" transform="matrix(1 0 0 1 1641 239 )" mask="url(#clip441)" />
  </g>
</svg>