<?xml version="1.0" encoding="utf-8"?>
<svg version="1.1" xmlns:xlink="http://www.w3.org/1999/xlink" width="51px" height="81px" xmlns="http://www.w3.org/2000/svg">
  <defs>
    <linearGradient gradientUnits="userSpaceOnUse" x1="72" y1="148" x2="72" y2="228" id="LinearGradient264">
      <stop id="Stop265" stop-color="#ffffff" offset="0" />
      <stop id="Stop266" stop-color="#f2f2f2" offset="0" />
      <stop id="Stop267" stop-color="#e4e4e4" offset="1" />
      <stop id="Stop268" stop-color="#ffffff" offset="1" />
    </linearGradient>
  </defs>
  <g transform="matrix(1 0 0 1 -47 -148 )">
    <path d="M 72 148.5  C 77.32 148.5  81.5 152.68  81.5 158  C 81.5 163.32  77.32 167.5  72 167.5  C 66.68 167.5  62.5 163.32  62.5 158  C 62.5 152.68  66.68 148.5  72 148.5  Z " fill-rule="nonzero" fill="url(#LinearGradient264)" stroke="none" />
    <path d="M 72 148.5  C 77.32 148.5  81.5 152.68  81.5 158  C 81.5 163.32  77.32 167.5  72 167.5  C 66.68 167.5  62.5 163.32  62.5 158  C 62.5 152.68  66.68 148.5  72 148.5  Z " stroke-width="1" stroke="#797979" fill="none" />
    <path d="M 47 178  L 97 178  M 72 168  L 72 203  M 52 228  L 72 203  M 72 203  L 92 228  " stroke-width="1" stroke="#797979" fill="none" />
  </g>
</svg>