<?xml version="1.0" encoding="utf-8"?>
<svg version="1.1" xmlns:xlink="http://www.w3.org/1999/xlink" width="12px" height="575px" preserveAspectRatio="xMidYMin meet" viewBox="105.666666666667 269  10 575" xmlns="http://www.w3.org/2000/svg">
  <defs>
    <mask fill="white" id="clip429">
      <path d="M 51 659  L 171 659  L 171 705  L 51 705  Z M 51 264  L 469 264  L 469 841  L 51 841  Z " fill-rule="evenodd" />
    </mask>
  </defs>
  <path d="M 469 838.5  L 213 838.5  A 3 3 0 0 0 210 835.5 A 3 3 0 0 0 207 838.5 L 115.666666666667 838.5  A 5 5 0 0 1 111.166666666667 833.5 L 111.166666666667 280  A 5 5 0 0 1 116.166666666667 275.5 L 210 275.5  " stroke-width="3" stroke="#cccccc" fill="none" mask="url(#clip429)" />
  <path d="M 208 284.4  L 217 275.5  L 208 266.6  L 208 284.4  Z " fill-rule="nonzero" fill="#cccccc" stroke="none" mask="url(#clip429)" />
</svg>