<?xml version="1.0" encoding="utf-8"?>
<svg version="1.1" xmlns:xlink="http://www.w3.org/1999/xlink" width="59px" height="44px" xmlns="http://www.w3.org/2000/svg">
  <g transform="matrix(1 0 0 1 -32 -408 )">
    <path d="M 32 408  L 91 408  L 91 452  L 32 452  L 32 408  " fill-rule="nonzero" fill="#cccccc" stroke="none" />
    <path d="M 35 411  L 88 411  L 88 449  L 35 449  L 35 411  " fill-rule="nonzero" fill="#ffffff" stroke="none" />
    <path d="M 65.98 421.2  C 64.132 421.2  62.68 419.748  62.68 417.9  C 62.68 416.052  64.132 414.6  65.98 414.6  C 67.828 414.6  69.28 416.052  69.28 417.9  C 69.28 419.748  67.828 421.2  65.98 421.2  " fill-rule="nonzero" fill="#cccccc" stroke="none" />
    <path d="M 36 448  L 36 428.2  L 48.75 419.2  L 66.6 431.891525423729  L 76.8 424.6  L 87 431.891525423729  L 87 448  L 36 448  " fill-rule="nonzero" fill="#169bd5" stroke="none" />
  </g>
</svg>