<?xml version="1.0" encoding="utf-8"?>
<svg version="1.1" xmlns:xlink="http://www.w3.org/1999/xlink" width="60px" height="60px" xmlns="http://www.w3.org/2000/svg">
  <g transform="matrix(1 0 0 1 -463 -1270 )">
    <path d="M 463 1270  L 523 1270  L 523 1330  L 463 1330  L 463 1270  " fill-rule="nonzero" fill="#cccccc" stroke="none" />
    <path d="M 467 1274  L 519 1274  L 519 1326  L 467 1326  L 467 1274  " fill-rule="nonzero" fill="#ffffff" stroke="none" />
    <path d="M 498.7 1288  C 496.18 1288  494.2 1286.02  494.2 1283.5  C 494.2 1280.98  496.18 1279  498.7 1279  C 501.22 1279  503.2 1280.98  503.2 1283.5  C 503.2 1286.02  501.22 1288  498.7 1288  " fill-rule="nonzero" fill="#cccccc" stroke="none" />
    <path d="M 469 1325  L 469 1298.05  L 481.25 1285.8  L 498.4 1295.6  L 508.2 1293.15  L 518 1295.6  L 518 1325  L 469 1325  " fill-rule="nonzero" fill="#169bd5" stroke="none" />
  </g>
</svg>