<?xml version="1.0" encoding="utf-8"?>
<svg version="1.1" xmlns:xlink="http://www.w3.org/1999/xlink" width="40px" height="50px" xmlns="http://www.w3.org/2000/svg">
  <defs>
    <filter x="779px" y="311px" width="40px" height="50px" filterUnits="userSpaceOnUse" id="filter95">
      <feOffset dx="1" dy="1" in="SourceAlpha" result="shadowOffsetInner" />
      <feGaussianBlur stdDeviation="2.5" in="shadowOffsetInner" result="shadowGaussian" />
      <feComposite in2="shadowGaussian" operator="atop" in="SourceAlpha" result="shadowComposite" />
      <feColorMatrix type="matrix" values="0 0 0 0 0  0 0 0 0 0  0 0 0 0 0  0 0 0 0.698039215686274 0  " in="shadowComposite" />
    </filter>
    <g id="widget96">
      <path d="M 798 354.036928468354  C 792.2 344.40734059591  783.5 338.629587872444  783.5 329  C 783.5 323.985714285714  786.4 315.5  798 315.5  C 809.6 315.5  812.5 323.985714285714  812.5 329  C 812.5 338.629587872444  803.8 344.40734059591  798 354.036928468354  Z " fill-rule="nonzero" fill="#009dd9" stroke="none" />
      <path d="M 798 355  C 792 345  783 339  783 329  C 783 323.8  786 315  798 315  C 810 315  813 323.8  813 329  C 813 339  804 345  798 355  Z M 798 353.073856936707  C 803.6 343.81468119182  812 338.259175744887  812 329  C 812 324.171428571429  809.2 316  798 316  C 786.8 316  784 324.171428571429  784 329  C 784 338.259175744887  792.4 343.81468119182  798 353.073856936707  Z " fill-rule="nonzero" fill="#ffffff" stroke="none" />
    </g>
  </defs>
  <g transform="matrix(1 0 0 1 -779 -311 )">
    <use xlink:href="#widget96" filter="url(#filter95)" />
    <use xlink:href="#widget96" />
  </g>
</svg>